<?xml version="1.0" encoding="iso-8859-1"?>
<!-- Generator: Adobe Illustrator 18.0.0, SVG Export Plug-In . SVG Version: 6.00 Build 0)  -->
<!DOCTYPE svg PUBLIC "-//W3C//DTD SVG 1.1//EN" "http://www.w3.org/Graphics/SVG/1.1/DTD/svg11.dtd">
<svg version="1.1" id="Capa_1" xmlns="http://www.w3.org/2000/svg" xmlns:xlink="http://www.w3.org/1999/xlink" x="0px" y="0px"
	 viewBox="0 0 231.5 231.5" style="enable-background:new 0 0 231.5 231.5;" xml:space="preserve">
<path d="M197.598,33.902C175.735,12.04,146.668,0,115.75,0S55.765,12.04,33.902,33.902S0,84.832,0,115.75
	s12.04,59.985,33.902,81.848S84.832,231.5,115.75,231.5s59.985-12.04,81.848-33.902s33.902-50.93,33.902-81.848
	S219.46,55.765,197.598,33.902z M15,115.75c0-31.818,14.754-60.186,37.789-78.65c21.836,19.182,35.628,47.301,35.628,78.65
	s-13.792,59.468-35.628,78.65C29.754,175.936,15,147.568,15,115.75z"/>
<g>
</g>
<g>
</g>
<g>
</g>
<g>
</g>
<g>
</g>
<g>
</g>
<g>
</g>
<g>
</g>
<g>
</g>
<g>
</g>
<g>
</g>
<g>
</g>
<g>
</g>
<g>
</g>
<g>
</g>
</svg>
